<svg id="visual" viewBox="0 0 900 600" width="900" height="600" xmlns="http://www.w3.org/2000/svg" xmlns:xlink="http://www.w3.org/1999/xlink" version="1.1"><rect width="900" height="600" fill="#001119"></rect><g><g transform="translate(47 512)"><path d="M0 -77.2L66.9 -38.6L66.9 38.6L0 77.2L-66.9 38.6L-66.9 -38.6Z" fill="#297EA6"></path></g><g transform="translate(21 250)"><path d="M0 -76L65.8 -38L65.8 38L0 76L-65.8 38L-65.8 -38Z" fill="#297EA6"></path></g><g transform="translate(464 191)"><path d="M0 -71L61.5 -35.5L61.5 35.5L0 71L-61.5 35.5L-61.5 -35.5Z" fill="#297EA6"></path></g><g transform="translate(607 578)"><path d="M0 -75L65 -37.5L65 37.5L0 75L-65 37.5L-65 -37.5Z" fill="#297EA6"></path></g><g transform="translate(801 171)"><path d="M0 -67L58 -33.5L58 33.5L0 67L-58 33.5L-58 -33.5Z" fill="#297EA6"></path></g><g transform="translate(546 30)"><path d="M0 -68L58.9 -34L58.9 34L0 68L-58.9 34L-58.9 -34Z" fill="#297EA6"></path></g></g></svg>