<svg id="visual" viewBox="0 0 900 600" width="900" height="600" xmlns="http://www.w3.org/2000/svg" xmlns:xlink="http://www.w3.org/1999/xlink" version="1.1"><rect x="0" y="0" width="900" height="600" fill="#001119"></rect><path d="M0 341L21.5 347.7C43 354.3 86 367.7 128.8 376.5C171.7 385.3 214.3 389.7 257.2 393.3C300 397 343 400 385.8 392C428.7 384 471.3 365 514.2 353C557 341 600 336 642.8 333.3C685.7 330.7 728.3 330.3 771.2 335.7C814 341 857 352 878.5 357.5L900 363L900 601L878.5 601C857 601 814 601 771.2 601C728.3 601 685.7 601 642.8 601C600 601 557 601 514.2 601C471.3 601 428.7 601 385.8 601C343 601 300 601 257.2 601C214.3 601 171.7 601 128.8 601C86 601 43 601 21.5 601L0 601Z" fill="#0284C7" stroke-linecap="round" stroke-linejoin="miter"></path></svg>