<svg id="visual" viewBox="0 0 1920 1080" width="1920" height="1080" xmlns="http://www.w3.org/2000/svg" xmlns:xlink="http://www.w3.org/1999/xlink" version="1.1"><rect x="0" y="0" width="1920" height="1080" fill="#002233"></rect><path d="M0 710L32 696C64 682 128 654 192 623.3C256 592.7 320 559.3 384 547C448 534.7 512 543.3 576 552.5C640 561.7 704 571.3 768 595C832 618.7 896 656.3 960 646.3C1024 636.3 1088 578.7 1152 557.7C1216 536.7 1280 552.3 1344 585.8C1408 619.3 1472 670.7 1536 702.5C1600 734.3 1664 746.7 1728 744.2C1792 741.7 1856 724.3 1888 715.7L1920 707L1920 1081L1888 1081C1856 1081 1792 1081 1728 1081C1664 1081 1600 1081 1536 1081C1472 1081 1408 1081 1344 1081C1280 1081 1216 1081 1152 1081C1088 1081 1024 1081 960 1081C896 1081 832 1081 768 1081C704 1081 640 1081 576 1081C512 1081 448 1081 384 1081C320 1081 256 1081 192 1081C128 1081 64 1081 32 1081L0 1081Z" fill="#0066FF" stroke-linecap="round" stroke-linejoin="miter"></path></svg>