<svg id="visual" viewBox="0 0 900 600" width="900" height="600" xmlns="http://www.w3.org/2000/svg" xmlns:xlink="http://www.w3.org/1999/xlink" version="1.1"><rect x="0" y="0" width="900" height="600" fill="#002233"></rect><path d="M0 397L18.8 389.7C37.7 382.3 75.3 367.7 112.8 366.7C150.3 365.7 187.7 378.3 225.2 400.8C262.7 423.3 300.3 455.7 337.8 467.3C375.3 479 412.7 470 450.2 450.5C487.7 431 525.3 401 562.8 402.5C600.3 404 637.7 437 675.2 449.3C712.7 461.7 750.3 453.3 787.8 434.2C825.3 415 862.7 385 881.3 370L900 355" fill="none" stroke-linecap="round" stroke-linejoin="miter" stroke="#0066FF" stroke-width="40"></path></svg>